Create MP4 from Images.
user
moviepy already installed  make a mp4 video from:                                                                                                               image_list = random.sample(glob.glob("images/*.jpg"),20)     24fps   show each image .5 seconds
ChatGPT
Sure! Here's a Python code snippet that should do what you're asking for:

```python
import random
import glob
from moviepy.editor import ImageSequenceClip

# Select 20 random images from the "images" directory
image_list = random.sample(glob.glob("images/*.jpg"), 20)

# Create a clip with the selected images, showing each for 0.5 seconds
clip = ImageSequenceClip(image_list, fps=24)
clip = clip.set_duration(len(image_list) * 0.5)

# Write the clip to an MP4 file
clip.write_videofile("output.mp4", fps=24)
```

This code imports the necessary modules, selects 20 random images from the "images" directory using the `random` and `glob` modules, creates a clip using the `ImageSequenceClip` class from `moviepy.editor`, and sets the duration of each image to 0.5 seconds using the `set_duration` method. Finally, the clip is written to an MP4 file using the `write_videofile` method.
user
show each image 1 second
ChatGPT
Sure thing! Here's the updated code snippet that shows each image for 1 second:

```python
import random
import glob
from moviepy.editor import ImageSequenceClip

# Select 20 random images from the "images" directory
image_list = random.sample(glob.glob("images/*.jpg"), 20)

# Create a clip with the selected images, showing each for 1 second
clip = ImageSequenceClip(image_list, fps=24)
clip = clip.set_duration(len(image_list))

# Write the clip to an MP4 file
clip.write_videofile("output.mp4", fps=24)
```

I simply changed the duration of each image to 1 second by passing `len(image_list)` as the argument to `set_duration`, which sets the clip duration to the total number of images in the `image_list`.
user
This is not working. I want to show each image 2 seconds
ChatGPT
My apologies for the confusion earlier. Here's the updated code snippet that shows each image for 2 seconds:

```python
import random
import glob
from moviepy.editor import ImageSequenceClip

# Select 20 random images from the "images" directory
image_list = random.sample(glob.glob("images/*.jpg"), 20)

# Create a clip with the selected images, showing each for 2 seconds
clip = ImageSequenceClip(image_list, fps=24)
clip = clip.set_duration(len(image_list) * 2)

#
user
import random
import glob
from moviepy.editor import ImageSequenceClip
BASE ="/home/jack/Desktop/HDD500/Downloads/00de3/butterflies/frog/leonardo.ai_files/"  
# Select 20 random images from the "images" directory
image_list = random.sample(glob.glob(BASE+"*.jpg"), 40)

# Create a clip with the selected images, showing each for 0.5 seconds
clip = ImageSequenceClip(image_list, fps=24)
clip = clip.set_duration(len(image_list)*2)

# Write the clip to an MP4 file
clip.write_videofile("EXPERIMENT/20frogs@1-25.mp4", fps=24,codec='libx264')

ChatGPT
It looks like you've successfully modified the code to use your own directory of images and set the duration to 2 seconds per image. The only thing I would suggest is that you double-check the path to your image directory to make sure that it's correct. 

Other than that, the code should work to create an MP4 video of 40 randomly-selected images from the specified directory, with each image displayed for 2 seconds, and the resulting video saved to the "EXPERIMENT" directory as "20frogs@1-25.mp4".
user
it does not show each image 2 seconds they are very fast
ChatGPT
I'm sorry to hear that the video is not displaying each image for the desired 2 seconds. Here are a few possible reasons and solutions:

1. The `fps` value of 24 in your code might be causing the images to display too quickly. Try reducing the `fps` value to 12 or even 6, which should slow down the video and make each image last longer. For example:

```python
import random
import glob
from moviepy.editor import ImageSequenceClip

BASE ="/home/jack/Desktop/HDD500/Downloads/00de3/butterflies/frog/leonardo.ai_files/"
# Select 20 random images from the "images" directory
image_list = random.sample(glob.glob(BASE + "*.jpg"), 40)

# Create a clip with the selected images, showing each for 2 seconds
clip = ImageSequenceClip(image_list, fps=6)
clip = clip.set_duration(len(image_list) * 2)

# Write the clip to an MP4 file
clip.write_videofile("EXPERIMENT/20frogs@1-25.mp4", fps=6, codec='libx264')
```

2. The images themselves might be too short or too similar to each other, so it seems like they are displaying too quickly. Try adding longer and more distinct images to the image directory, or increase the number of images in the directory to create a longer video.

3. It's possible that the video is playing back too quickly on your computer, and that's why it seems like the images are displaying too fast. Try opening the video in a media player like VLC or QuickTime, and adjust the playback speed to see if the images are displaying for the desired length of time.
user
ffmpeg -hide_banner -i ${VIDEO} -filter:v "setpts=50*PTS,minterpolate='fps=25:scd=none:me_mode=bidir:vsbmc=1:search_param=200'" -y EXPERIMENT/start_param50-200.mp4                                                                                                            QUESTION:  What is the purpose of the search_param
ChatGPT
The `search_param` is a parameter in the `minterpolate` filter of FFmpeg that controls the size of the search window used for motion estimation. Motion estimation is the process of determining how pixels in one frame of a video move relative to the pixels in the previous or next frame, and it's an important step in video compression and motion analysis.

The `search_param` value specifies the maximum number of pixels that the motion estimation algorithm will search in any direction from the current pixel location. A larger `search_param` value can help improve the accuracy of motion estimation, but it can also increase the computational complexity and processing time of the algorithm.

In your FFmpeg command, the `search_param` value is set to 200, which means that the motion estimation algorithm will search up to 200 pixels in any direction from the current pixel location. This value was likely chosen based on the specific video and motion characteristics of your input video, and can be adjusted to achieve the desired balance between accuracy and processing time.
user
Could you get in more detail. What is it searching for ?
ChatGPT
The `search_param` parameter in FFmpeg's `minterpolate` filter controls the search range used by the motion estimation algorithm to identify and track motion in a video. When you use `minterpolate` with `search_param` set to a value of 200, the algorithm will search for matching blocks of pixels up to 200 pixels in each direction around the current pixel location.

To explain this further, the motion estimation algorithm works by comparing blocks of pixels in the current frame of the video with blocks of pixels in the previous or next frame, to find the closest match for each block. The size of the block and the search range around the current pixel location are determined by the `block` and `search_param` parameters, respectively.

When the algorithm has found the closest match for each block, it calculates the motion vector for that block, which represents how far the block has moved from its position in the previous or next frame. These motion vectors are then used to create new frames in between the original frames, to create the illusion of smooth motion.

The `search_param` value affects the accuracy and speed of the motion estimation algorithm. A larger search range can improve the accuracy of the motion vectors, but it also increases the computational complexity and processing time of the algorithm. A smaller search range can speed up the algorithm, but it may also result in less accurate motion vectors, which can cause visual artifacts such as motion blur or jitter.

So, in summary, the `search_param` parameter in the `minterpolate` filter is used to control the size of the search range around each pixel, to help identify and track motion in a video.
user
what is scd=none:me_mode=bidir ??
ChatGPT
`scd` and `me_mode` are additional parameters of the `minterpolate` filter in FFmpeg, used in conjunction with the `search_param` parameter to control the motion estimation process. 

`scd` stands for "scene change detection", and it controls how the motion estimation algorithm reacts to scene changes in the video. When set to `none`, the algorithm will not attempt to detect scene changes and will assume that the motion vectors calculated for each block are valid for the entire video. This can result in smoother motion, but it may also lead to visual artifacts if the motion in the video changes dramatically from one scene to the next.

`me_mode` stands for "motion estimation mode", and it controls how the algorithm searches for matching blocks of pixels in the previous or next frame. When set to `bidir`, the algorithm performs a bidirectional search, which means it searches for matching blocks in both the previous and next frames. This can improve the accuracy of the motion vectors, but it also increases the computational complexity and processing time of the algorithm.

In summary, `scd=none` tells the motion estimation algorithm not to detect scene changes, and `me_mode=bidir` tells it to perform a bidirectional search when looking for matching blocks of pixels in the previous or next frame. These settings can be adjusted to achieve the desired balance between accuracy and processing time in your video.
user
what are the other possible parameters for scd=?
ChatGPT
The `scd` parameter in the `minterpolate` filter of FFmpeg can take the following values:

- `none`: Disables scene change detection, and the motion vectors calculated for each block are assumed to be valid for the entire video. This is the default value if `scd` is not specified.

- `selective`: Enables scene change detection and attempts to detect changes in motion between frames. When a scene change is detected, the algorithm recalculates the motion vectors for each block in the affected area. This can result in better image quality at scene changes, but it also increases the computational complexity and processing time of the algorithm.

- `brute`: Enables scene change detection and recalculates the motion vectors for each block in every frame, regardless of whether a scene change has been detected. This can result in smoother motion and better image quality, but it also increases the computational complexity and processing time of the algorithm.

The choice of `scd` parameter depends on the nature of the video being processed, and the desired trade-off between image quality and processing time. If the video has frequent scene changes or significant changes in motion between frames, then `selective` or `brute` scene change detection may be necessary to maintain image quality. If the video has relatively consistent motion throughout, then disabling scene change detection (`none`) may be sufficient.
user
i am using it on a 1 image per second slide show to get image effects
ChatGPT
In that case, you may not need scene change detection at all (`scd=none`) since there won't be any significant changes in motion between frames. However, you could still experiment with different values for `search_param` and `me_mode` to see if they produce the desired visual effects for your slideshow. 

Keep in mind that higher values for `search_param` may result in better quality motion estimation but also increase processing time and may not be necessary for a slideshow with mostly static images. Similarly, `me_mode=bidir` may provide better accuracy, but it also comes with a higher computational cost than other motion estimation modes (`dia`, `hex`, `umh`, `full`, etc.).
user
ffmpeg is there a way to allow some identical frames in an mp4, but limit the identical to 5 constitutive identical frames
ChatGPT
Yes, you can use the `mpdecimate` filter in FFmpeg to remove consecutive duplicate frames from a video, while preserving a limited number of identical frames.

To limit the number of consecutive identical frames to 5, you can use the following command:

```
ffmpeg -i input.mp4 -vf "mpdecimate=hi=5:lo=1" -c:v libx264 -preset medium -crf 23 -c:a copy output.mp4
```

In this command, the `mpdecimate` filter is applied to the video using the following options:

- `hi`: The maximum number of identical frames allowed in a row. Any frames beyond this limit will be considered duplicate frames and removed from the output. In this case, we set `hi=5` to limit the number of identical frames to 5.

- `lo`: The minimum number of frames that must separate two identical frames to prevent them from being considered duplicates. In this case, we set `lo=1` to allow identical frames that are separated by at least one different frame.

The output video is encoded using the libx264 codec with a medium preset and a CRF (Constant Rate Factor) of 23. The audio stream is copied directly from the input to the output without any modification (`-c:a copy`).

Note that removing duplicate frames from a video can result in a smaller file size and smoother playback, but it can also affect the overall quality of the video if too many frames are removed. Therefore, it's important to strike a balance between file size and visual quality when using this filter.
user
ffmpeg -i EXPERIMENT/frog-5_param10-search200.mp4 -vf "mpdecimate=hi=0:lo=0" -c:v libx264 -preset medium -crf 23 -c:a copy EXPERIMENT/frog-search200_mpdecimate=hi=0:lo=0.                this is not removing duplicate frames ??
ChatGPT
The command you provided is not correctly specifying the output file name. You need to provide the output file name after the `=` sign in `-vf` option. In addition, the `hi` and `lo` parameters of `mpdecimate` are both set to 0, which means that no frames will be removed. You need to set them to non-zero values to remove duplicate frames.

Here is an example command that should work:

```
ffmpeg -i EXPERIMENT/frog-5_param10-search200.mp4 -vf "mpdecimate=hi=5:lo=1" -c:v libx264 -preset medium -crf 23 -c:a copy EXPERIMENT/frog-search200_mpdecimate=hi5_lo1.mp4
```

In this command, `mpdecimate` is set to remove consecutive duplicate frames, with a maximum of 5 identical frames in a row and a minimum of 1 frame between identical frames. The output file name is specified as `EXPERIMENT/frog-search200_mpdecimate=hi5_lo1.mp4`. This should result in a video with fewer duplicate frames.
user
this is not removing duplicate frames ??  ffmpeg -i EXPERIMENT/frog-5_param10-search200.mp4 -vf "mpdecimate=hi=0:lo=0" -c:v libx264 -preset medium -crf 23 -c:a copy EXPERIMENT/frog-search200_mpdecimatehi0_lo0.mp4
ChatGPT
The reason why the command is not removing duplicate frames is that you have set both the `hi` and `lo` values to 0, which means that no frames will be removed.

To remove duplicate frames using `mpdecimate`, you need to set the `hi` and `lo` parameters to non-zero values. The `hi` parameter sets the threshold for the maximum number of consecutive identical frames that can be present, while the `lo` parameter sets the threshold for the minimum number of unique frames that must occur between identical frames.

Here's an example command that removes duplicate frames using `mpdecimate`:

```
ffmpeg -i EXPERIMENT/frog-5_param10-search200.mp4 -vf "mpdecimate=hi=5:lo=1" -c:v libx264 -preset medium -crf 23 -c:a copy EXPERIMENT/frog-search200_mpdecimatehi5_lo1.mp4
```

In this command, `mpdecimate` is set to remove consecutive duplicate frames, with a maximum of 5 identical frames in a row and a minimum of 1 frame between identical frames. The output file name is specified as `EXPERIMENT/frog-search200_mpdecimatehi5_lo1.mp4`. This should result in a video with fewer duplicate frames.
user
ffmpeg -i EXPERIMENT/frog-5_param10-search200.mp4 -vf "mpdecimate=hi=1:lo=1" -c:v libx264 -preset medium -crf 23 -c:a copy EXPERIMENT/frog-search200_mpdecimatehi5_lo1.mp4

ChatGPT
In the command you provided, you set `hi` and `lo` to 1, which means that only consecutive frames that are exactly identical will be removed. This may not result in significant reduction of duplicate frames, especially if your video has small variations between frames.

If you want to remove similar frames as well, you may want to increase the `hi` value to allow for more similar frames to be removed. However, increasing `hi` too much may also remove frames that are not actually duplicates, so you'll need to find a balance that works well for your specific video.

For example, the following command sets `hi` to 5 and `lo` to 1, which means that up to 5 consecutive similar frames will be removed, with at least 1 unique frame between them:

```
ffmpeg -i EXPERIMENT/frog-5_param10-search200.mp4 -vf "mpdecimate=hi=5:lo=1" -c:v libx264 -preset medium -crf 23 -c:a copy EXPERIMENT/frog-search200_mpdecimatehi5_lo1.mp4
```

You can adjust the `hi` and `lo` values as needed to achieve the desired level of duplicate frame reduction.
user
ffmpeg -i EXPERIMENT/frog-5_param10-search200.mp4 -vf "mpdecimate=hi=35:lo=2" -c:v libx264 -preset medium -crf 23 -c:a copy EXPERIMENT/frog-search200_mpdecimatehi25_lo-.mp4   I still have  about 1 second of duplicate frames ??
ChatGPT
The `mpdecimate` filter is designed to remove duplicate or similar frames, but it is not perfect and may not always be able to remove all duplicates. It works by comparing each frame with the previous and next frames, and if the difference is below a certain threshold, the frame is marked for removal.

In your case, it's possible that the frames in the duplicate section are not exactly identical or similar enough for `mpdecimate` to detect and remove them. Increasing the `hi` value can help remove more similar frames, but increasing it too much can also remove valid frames.

You can try adjusting the `hi` and `lo` values further to see if it helps in removing the duplicate frames. However, if you still have duplicate frames after several attempts, you may need to consider other approaches, such as manually editing the video or using a different filter or tool.
user
what about removing 20 duplicate consecutive frames
ChatGPT
To remove 20 consecutive duplicate frames using `ffmpeg`, you can use the `silencedetect` filter to detect silent parts of the video, and then use the `select` and `concat` filters to exclude the silent parts and concatenate the remaining parts of the video.

Here is an example command that you can use:

```
ffmpeg -i input.mp4 -vf "silencedetect=n=-20dB:d=0.5,select='gte(n,20)',setpts=N/(FRAME_RATE*TB)" -af "aselect='gte(n,20)',asetpts=N/SR/TB" -c:v libx264 -crf 23 -c:a aac -b:a 192k -movflags +faststart output.mp4
```

In this command:

- `-vf "silencedetect=n=-20dB:d=0.5,select='gte(n,20)',setpts=N/(FRAME_RATE*TB)"` applies the `silencedetect` filter with a threshold of -20dB and a minimum duration of 0.5 seconds. The filter outputs metadata about the silent parts of the video, which is then used by the `select` filter to exclude the first 20 frames.

- `-af "aselect='gte(n,20)',asetpts=N/SR/TB"` applies the `aselect` filter to exclude the first 20 audio samples, and the `asetpts` filter to adjust the timestamps of the remaining samples.

- `-c:v libx264 -crf 23 -c:a aac -b:a 192k -movflags +faststart` sets the output video codec to H.264 with a constant rate factor (CRF) of 23, and the output audio codec to AAC with a bitrate of 192 kbps. The `movflags +faststart` option enables fast start for progressive playback in web browsers.

- `output.mp4` is the output file name.

This command should remove the first 20 consecutive duplicate frames from the video. You can adjust the `n` value in the `silencedetect` filter to change the threshold for detecting silence, and the `setpts` and `asetpts` filters to adjust the timestamps of the remaining frames and audio samples.
user
what is the big difference between silencedetect and mpdecimate please answer in detail I am lost 
ChatGPT
`silencedetect` and `mpdecimate` are two different filters in FFmpeg that serve different purposes.

`silencedetect` is a filter that detects silence in an audio stream. It is primarily used to identify and extract silent sections of a video's audio track. It takes two parameters `n` and `d` that define the minimum duration of silence and the minimum silence level in dB respectively. The filter works by analyzing the audio signal's amplitude over time and detecting periods where the amplitude falls below the specified silence level for the specified duration.

`mpdecimate`, on the other hand, is a video filter that reduces the frame rate of a video by discarding duplicate frames. It is used to remove redundant frames from a video while preserving as much of the original video quality as possible. It takes two parameters `hi` and `lo` that define the maximum and minimum number of consecutive frames that can be identical before being discarded. The filter works by comparing adjacent frames and discarding any that are too similar.

In summary, `silencedetect` is used to detect silent audio sections, while `mpdecimate` is used to remove duplicate video frames. They are different tools that serve different purposes in video processing.
user
ffmpeg -i EXPERIMENT/frogs.mp4 -vf "silencedetect=n=-20dB:d=0.5,select='gte(n,20)',setpts=N/(FRAME_RATE*TB)" -af "aselect='gte(n,20)',asetpts=N/SR/TB" -c:v libx264 -crf 23 -c:a aac -b:a 192k -movflags +faststart -y EXPERIMENT/frog-search-silencedetect.mp4                                                                                                                        Metadata:
      handler_name    : VideoHandler
Only '-vf silencedetect=n=-20dB:d=0.5,select='gte(n,20)',setpts=N/(FRAME_RATE*TB)' read, ignoring remaining -vf options: Use ',' to separate filters
Codec AVOption b (set bitrate (in bits/s)) specified for output file #0 (EXPERIMENT/frog-search-silencedetect.mp4) has not been used for any stream. The most likely reason is either wrong type (e.g. a video option with no video streams) or that it is a private option of some encoder which was not actually used for any stream.
Stream mapping:
  Stream #0:0 -> #0:0 (h264 (native) -> h264 (libx264))
Press [q] to stop, [?] for help
[Parsed_silencedetect_0 @ 0x55b0657a7c00] Media type mismatch between the 'Parsed_silencedetect_0' filter output pad 0 (audio) and the 'Parsed_select_1' filter input pad 0 (video)
[AVFilterGraph @ 0x55b0657a7100] Cannot create the link silencedetect:0 -> select:0
Error reinitializing filters!
Failed to inject frame into filter network: Invalid argument
Error while processing the decoded data for stream #0:0
ChatGPT
The error message you're seeing suggests that there is an issue with the filter chain you're using. Specifically, it looks like there is a media type mismatch between the output of the `silencedetect` filter (which outputs audio) and the input of the `select` filter (which expects video).

To fix this error, you might need to restructure your filter chain. One possible solution is to split the audio and video streams, process them separately, and then recombine them at the end. Here's an example filter chain that should remove silent frames from the audio and video streams separately:

```
ffmpeg -i input.mp4 \
-filter_complex "[0:v]setpts=N/(FRAME_RATE*TB)[v];[0:a]silencedetect=n=-20dB:d=0.5[ad];[0:a]aselect='gte(n\,20)',asetpts=N/SR/TB[a]" \
-map "[v]" -map "[a]" -c:v libx264 -crf 23 -c:a aac -b:a 192k -movflags +faststart -y output.mp4
```

This filter chain does the following:

1. Sets the video stream PTS to be proportional to the timebase (TB) and the frame rate (FRAME_RATE). This ensures that the output video has the same number of frames as the input video.

2. Applies the `silencedetect` filter to the audio stream, which detects silent frames.

3. Uses the `aselect` filter to select only audio frames that are not silent (i.e., that have an audio level greater than -20dB), and then sets their PTS to be proportional to the sample rate (SR) and the timebase.

4. Combines the modified video and audio streams into a single output file using the `-map` option.

5. Sets the output video codec to `libx264`, the output audio codec to `aac`, and the output audio bitrate to 192k.

6. Sets the `+faststart` flag to enable video playback while the file is still downloading.

Note that this filter chain only removes silent frames from the audio and video streams separately. If you want to remove duplicate frames as well, you can add the `mpdecimate` filter to the video stream, as shown in some of the previous examples.
user
it has no audio 
ChatGPT
The `silencedetect` filter is designed to detect silence in an audio stream and can be used to trigger certain actions based on that detection. In the command you provided, you are using the `silencedetect` filter to detect silence in the audio stream and then using the `select` filter to select video frames that occur after 20 seconds of silence. 

However, it appears that the output video file generated by this command has no audio. This could be due to a couple of reasons:

1. The `silencedetect` filter is not detecting any silence in the audio stream, so the `select` filter is not selecting any frames. In this case, since the `select` filter only selects video frames, the resulting output file will have no audio.

2. There is a mistake in the command that is causing the audio stream to be dropped. This could be due to incorrect syntax or an error in the filter graph.

To further investigate, you can try running the command with the `-hide_banner` option to see if any errors or warnings are displayed. Additionally, you can try removing the `select` filter to see if the output file has audio.
user
I ask about duplicate frames and you gave me an audio detect ?
ChatGPT
I apologize for the confusion. You are correct, the command I provided was for detecting silent sections in the audio stream. To remove duplicate frames, you can use the `mpdecimate` filter.

Here is an example command that uses `mpdecimate` to remove duplicate frames:

```
ffmpeg -i input.mp4 -vf "mpdecimate" -c:v libx264 -crf 23 -c:a copy output.mp4
```

This will remove duplicate frames from the video stream while preserving the audio stream. The `mpdecimate` filter uses motion analysis to identify and remove consecutive duplicate frames. You can adjust the `hi` and `lo` parameters to control the sensitivity of the filter. A higher value for `hi` will detect more duplicate frames, while a higher value for `lo` will require more motion to consider frames as different.

I hope this helps! Let me know if you have any further questions.
user
how do I count the duplicate frames ffmpeg
ChatGPT
You can use the `mpdecimate` filter to count the number of duplicate frames in a video. Here is an example command:

```
ffmpeg -i input.mp4 -vf "mpdecimate" -c:v copy -f null -
```

The `mpdecimate` filter will output a log to the console that shows the number of dropped frames. The `-f null -` option at the end of the command tells FFmpeg to discard the output video, so only the log is printed to the console.

The log will look something like this:

```
[Parsed_mpdecimate_0 @ 0x7f9b1e50e9a0] 51 duplicated frames, 0 dropped frames, 0 dup=0 drop=0 speed=1.12x    
```

In this example, `51` frames were detected as duplicates.
user
Input #0, mov,mp4,m4a,3gp,3g2,mj2, from 'EXPERIMENT/frogs.mp4':
  Metadata:
    major_brand     : isom
    minor_version   : 512
    compatible_brands: isomiso2avc1mp41
    encoder         : Lavf58.29.100
  Duration: 00:01:49.32, start: 0.000000, bitrate: 835 kb/s
    Stream #0:0(und): Video: h264 (High) (avc1 / 0x31637661), yuv420p, 512x1024 [SAR 1:1 DAR 1:2], 833 kb/s, 25 fps, 25 tbr, 12800 tbn, 50 tbc (default)
    Metadata:
      handler_name    : VideoHandler
Filtergraph 'mpdecimate' was defined for video output stream 0:0 but codec copy was selected.
Filtering and streamcopy cannot be used together.
ChatGPT
This error message means that you cannot use both the mpdecimate filter and the stream copy codec (-c:v copy or -c:a copy) at the same time. The mpdecimate filter modifies the video stream by removing duplicate frames, but the stream copy codec simply copies the input stream without making any changes to it. To fix this error, you need to remove the "-c:v copy" option from your command and use a video codec that is compatible with the mpdecimate filter. Here's an example command:

```
ffmpeg -i input.mp4 -vf mpdecimate -c:v libx264 -preset medium -crf 23 -c:a copy output.mp4
```

This command uses the libx264 video codec and the mpdecimate filter to remove duplicate frames from the input video. The "-c:a copy" option copies the audio stream without modifying it.
user
I wanted to count the duplicate frames ??
ChatGPT
To count the number of duplicate frames in a video, you can use the `mpdecimate` filter in FFmpeg. The `mpdecimate` filter can output a list of duplicated frames in the video along with their corresponding frame numbers.

Here's an example command that will count the number of duplicate frames using `mpdecimate`:

```
ffmpeg -i input.mp4 -vf "mpdecimate" -f null -
```

This command will output a list of duplicate frames in the video, along with their frame numbers, to the console. To count the number of duplicate frames, you can simply count the number of lines in the output that start with "DUP".

Alternatively, you can use the following command to count the number of duplicate frames without printing the full list of duplicates:

```
ffmpeg -i input.mp4 -vf "mpdecimate" -map 0:v:0 -c copy -f null - 2>&1 | grep -c DUP=
```

This command will output only the count of duplicate frames to the console.
user
I dont understand ? I watch the video it has the same frame for .5 seconds then changes then same frame .5 seconds   yet it says no duplicate frames ?
ChatGPT
It's possible that the `mpdecimate` filter is not detecting the duplicate frames in your video correctly, which can happen in certain cases. However, it's also possible that there are no duplicate frames in your video.

To verify if there are any duplicate frames in your video, you can try a different approach by using the `select` filter. Here is an example command that uses the `select` filter to count the number of duplicate frames:

```
ffmpeg -i input.mp4 -vf "select='eq(pict_type,PICT_TYPE_I)',showinfo" -f null -
```

This command will output information about each frame of the input video, including the frame number and the picture type. The `select` filter is used to select only the I-frames (intra-coded frames), which are the key frames in the video. By doing so, we can count the number of key frames, which should be equal to the number of unique frames in the video. If the number of key frames is less than the total number of frames, it means that there are some duplicate frames in the video.

Note that this command may take some time to run, especially for long videos, since it needs to process each frame.
user
i want to print that info to a file ... this does not work ffmpeg -i shortfrogs.mp4 -vf "select='eq(pict_type,PICT_TYPE_I)',showinfo" -f null - >>frog.info

ChatGPT
The command you provided should work for printing the frame information to a file. However, the `>>` operator is used for appending the output to the file. If you want to overwrite the file each time, you should use a single `>` operator instead.

Here is the corrected command:

```
ffmpeg -i shortfrogs.mp4 -vf "select='eq(pict_type,PICT_TYPE_I)',showinfo" -f null - > frog.info
```

This will write the output to a file called `frog.info` in the current directory.
user
frog.info is an empty file
ChatGPT
Try replacing `-f null -` with `-f null /dev
ull` in your command. This will redirect the output to the null device, which will discard it, and ensure that the output is written to the file instead of being discarded. So the full command would be:

```
ffmpeg -i shortfrogs.mp4 -vf "select='eq(pict_type,PICT_TYPE_I)',showinfo" -f null /dev
ull >> frog.info
```
user
[Parsed_showinfo_1 @ 0x561eae3a01c0] n:  24 pts:1380352 pts_time:107.84  pos: 10870315 fmt:yuv420p sar:1/1 s:512x1024 i:P iskey:1 type:I checksum:79EA390B plane_checksum:[CB2FC56C C91DD3FA C4BB9F87] mean:[74 137 121] stdev:[20.9 11.4 16.4]
[Parsed_showinfo_1 @ 0x561eae3a01c0] color_range:unknown color_space:unknown color_primaries:unknown color_trc:unknown
frame=   25 fps=7.9 q=-0.0 Lsize=N/A time=00:01:47.88 bitrate=N/A speed=34.1x    
video:13kB audio:0kB subtitle:0kB other streams:0kB global headers:0kB muxing overhead: unknown

ChatGPT
It seems like the `showinfo` filter is successfully printing the information about each I-frame to the console, but the output is not being redirected to the `frog.info` file. 

You can try using the `-loglevel` option to set the log level to `info`, which will include the output from the `showinfo` filter in the console output. You can then redirect the console output to the file using the `>` operator. Here's an example command:

```
ffmpeg -i shortfrogs.mp4 -vf "select='eq(pict_type,PICT_TYPE_I)',showinfo" -loglevel info -f null - > frog.info 2>&1
```

This should redirect the console output (including the `showinfo` output) to the `frog.info` file. Note that the `2>&1` at the end redirects any error messages to the console output, so you can see if there are any issues with the command.
user
where is the duplicate frames ?? Input #0, mov,mp4,m4a,3gp,3g2,mj2, from 'shortfrogs.mp4':
  Metadata:
    major_brand     : isom
    minor_version   : 512
    compatible_brands: isomiso2avc1mp41
    encoder         : Lavf58.29.100
  Duration: 00:01:48.04, start: 0.000000, bitrate: 815 kb/s
    Stream #0:0(und): Video: h264 (High) (avc1 / 0x31637661), yuv420p, 512x1024 [SAR 1:1 DAR 1:2], 812 kb/s, 25 fps, 25 tbr, 12800 tbn, 50 tbc (default)
    Metadata:
      handler_name    : VideoHandler
Stream mapping:
  Stream #0:0 -> #0:0 (h264 (native) -> wrapped_avframe (native))
Press [q] to stop, [?] for help
[Parsed_showinfo_1 @ 0x55f0c4ea2200] config in time_base: 1/12800, frame_rate: 25/1
[Parsed_showinfo_1 @ 0x55f0c4ea2200] config out time_base: 0/0, frame_rate: 0/0
[Parsed_showinfo_1 @ 0x55f0c4ea2200] n:   0 pts:      0 pts_time:0       pos:       48 fmt:yuv420p sar:1/1 s:512x1024 i:P iskey:1 type:I checksum:22110714 plane_checksum:[7B5FFCA2 6D689BB0 C0116EA4] mean:[56 123 127 ] stdev:[34.1 13.4 12.7 ]
[Parsed_showinfo_1 @ 0x55f0c4ea2200] color_range:unknown color_space:unknown color_primaries:unknown color_trc:unknown
Output #0, null, to 'pipe:':
  Metadata:
    major_brand     : isom
    minor_version   : 512
    compatible_brands: isomiso2avc1mp41
    encoder         : Lavf58.29.100
    Stream #0:0(und): Video: wrapped_avframe, yuv420p, 512x1024 [SAR 1:1 DAR 1:2], q=2-31, 200 kb/s, 25 fps, 25 tbn, 25 tbc (default)
    Metadata:
      handler_name    : VideoHandler
      encoder         : Lavc58.54.100 wrapped_avframe
[Parsed_showinfo_1 @ 0x55f0c4ea2200] n:   1 pts: 101888 pts_time:7.96    pos:   686178 fmt:yuv420p sar:1/1 s:512x1024 i:P iskey:1 type:I checksum:744B03D0 plane_checksum:[D21F72E5 3726341D 5FF65CBF] mean:[52 124 130 ] stdev:[29.1 9.3 7.4 ]
[Parsed_showinfo_1 @ 0x55f0c4ea2200] color_range:unknown color_space:unknown color_primaries:unknown color_trc:unknown
frame=    2 fps=0.0 q=-0.0 size=N/A time=00:00:08.00 bitrate=N/A speed=  16x    
[Parsed_showinfo_1 @ 0x55f0c4ea2200] n:   2 pts: 177152 pts_time:13.84   pos:  1207198 fmt:yuv420p sar:1/1 s:512x1024 i:P iskey:1 type:I checksum:F5486421 plane_checksum:[0707F1A0 1AE219C4 297258AE] mean:[51 126 127 ] stdev:[21.0 7.4 3.8 ]
[Parsed_showinfo_1 @ 0x55f0c4ea2200] color_range:unknown color_space:unknown color_primaries:unknown color_trc:unknown
[Parsed_showinfo_1 @ 0x55f0c4ea2200] n:   3 pts: 229376 pts_time:17.92   pos:  1604933 fmt:yuv420p sar:1/1 s:512x1024 i:P iskey:1 type:I checksum:F962E960 plane_checksum:[586CC9B8 2255C938 9EC85661] mean:[53 126 129 ] stdev:[20.2 7.3 9.7 ]
[Parsed_showinfo_1 @ 0x55f0c4ea2200] color_range:unknown color_space:unknown color_primaries:unknown color_trc:unknown
frame=    4 fps=4.0 q=-0.0 size=N/A time=00:00:17.96 bitrate=N/A speed=17.9x    
[Parsed_showinfo_1 @ 0x55f0c4ea2200] n:   4 pts: 280576 pts_time:21.92   pos:  1948793 fmt:yuv420p sar:1/1 s:512x1024 i:P iskey:1 type:I checksum:A8ACFE03 plane_checksum:[D281109E 4FFD4B90 C574A1D5] mean:[54 125 127 ] stdev:[25.1 8.4 6.1 ]
[Parsed_showinfo_1 @ 0x55f0c4ea2200] color_range:unknown color_space:unknown color_primaries:unknown color_trc:unknown
[Parsed_showinfo_1 @ 0x55f0c4ea2200] n:   5 pts: 330752 pts_time:25.84   pos:  2295557 fmt:yuv420p sar:1/1 s:512x1024 i:P iskey:1 type:I checksum:05D22939 plane_checksum:[F2B48778 AC47AD1D 5A27F486] mean:[53 124 128 ] stdev:[22.8 7.6 4.9 ]
[Parsed_showinfo_1 @ 0x55f0c4ea2200] color_range:unknown color_space:unknown color_primaries:unknown color_trc:unknown
[Parsed_showinfo_1 @ 0x55f0c4ea2200] n:   6 pts: 381952 pts_time:29.84   pos:  2652519 fmt:yuv420p sar:1/1 s:512x1024 i:P iskey:1 type:I checksum:092410CF plane_checksum:[25355F9D FE5F3B18 8E23760B] mean:[52 125 127 ] stdev:[23.1 8.2 4.3 ]
[Parsed_showinfo_1 @ 0x55f0c4ea2200] color_range:unknown color_space:unknown color_primaries:unknown color_trc:unknown
[Parsed_showinfo_1 @ 0x55f0c4ea2200] n:   7 pts: 460288 pts_time:35.96   pos:  3282002 fmt:yuv420p sar:1/1 s:512x1024 i:P iskey:1 type:I checksum:F03D8D37 plane_checksum:[A483484C 1A3275D9 6E79CF03] mean:[55 126 129 ] stdev:[27.8 10.8 11.4 ]
[Parsed_showinfo_1 @ 0x55f0c4ea2200] color_range:unknown color_space:unknown color_primaries:unknown color_trc:unknown
frame=    8 fps=5.3 q=-0.0 size=N/A time=00:00:36.00 bitrate=N/A speed=  24x    
[Parsed_showinfo_1 @ 0x55f0c4ea2200] n:   8 pts: 536576 pts_time:41.92   pos:  3805006 fmt:yuv420p sar:1/1 s:512x1024 i:P iskey:1 type:I checksum:FAD63CE7 plane_checksum:[168AD599 F174050D 48796232] mean:[54 125 132 ] stdev:[25.5 9.4 13.9 ]
[Parsed_showinfo_1 @ 0x55f0c4ea2200] color_range:unknown color_space:unknown color_primaries:unknown color_trc:unknown
[Parsed_showinfo_1 @ 0x55f0c4ea2200] n:   9 pts: 613376 pts_time:47.92   pos:  4372655 fmt:yuv420p sar:1/1 s:512x1024 i:P iskey:1 type:I checksum:2841D25A plane_checksum:[7024F953 AE45F973 59B3DF76] mean:[55 127 125 ] stdev:[23.9 9.1 3.5 ]
[Parsed_showinfo_1 @ 0x55f0c4ea2200] color_range:unknown color_space:unknown color_primaries:unknown color_trc:unknown
[Parsed_showinfo_1 @ 0x55f0c4ea2200] n:  10 pts: 665088 pts_time:51.96   pos:  4790668 fmt:yuv420p sar:1/1 s:512x1024 i:P iskey:1 type:I checksum:E5EC677C plane_checksum:[B522ED08 D5E161F4 4E751871] mean:[55 123 129 ] stdev:[29.8 13.6 11.0 ]
[Parsed_showinfo_1 @ 0x55f0c4ea2200] color_range:unknown color_space:unknown color_primaries:unknown color_trc:unknown
frame=   11 fps=5.5 q=-0.0 size=N/A time=00:00:52.00 bitrate=N/A speed=  26x    
[Parsed_showinfo_1 @ 0x55f0c4ea2200] n:  11 pts: 715776 pts_time:55.92   pos:  5153596 fmt:yuv420p sar:1/1 s:512x1024 i:P iskey:1 type:I checksum:2F27DEB4 plane_checksum:[BE2634A3 0D91B9F8 401FF00A] mean:[51 126 132 ] stdev:[20.3 8.1 14.3 ]
[Parsed_showinfo_1 @ 0x55f0c4ea2200] color_range:unknown color_space:unknown color_primaries:unknown color_trc:unknown
[Parsed_showinfo_1 @ 0x55f0c4ea2200] n:  12 pts: 766976 pts_time:59.92   pos:  5544484 fmt:yuv420p sar:1/1 s:512x1024 i:P iskey:1 type:I checksum:0144500D plane_checksum:[7D69AE48 1129FAE9 2E5BA6BE] mean:[50 125 127 ] stdev:[23.4 8.5 5.8 ]
[Parsed_showinfo_1 @ 0x55f0c4ea2200] color_range:unknown color_space:unknown color_primaries:unknown color_trc:unknown
[Parsed_showinfo_1 @ 0x55f0c4ea2200] n:  13 pts: 817152 pts_time:63.84   pos:  5910676 fmt:yuv420p sar:1/1 s:512x1024 i:P iskey:1 type:I checksum:112A90E6 plane_checksum:[531B9581 A674326A 227DC8EC] mean:[52 126 125 ] stdev:[22.7 6.9 5.0 ]
[Parsed_showinfo_1 @ 0x55f0c4ea2200] color_range:unknown color_space:unknown color_primaries:unknown color_trc:unknown
frame=   14 fps=5.6 q=-0.0 size=N/A time=00:01:03.88 bitrate=N/A speed=25.5x    
[Parsed_showinfo_1 @ 0x55f0c4ea2200] n:  14 pts: 869376 pts_time:67.92   pos:  6366739 fmt:yuv420p sar:1/1 s:512x1024 i:P iskey:1 type:I checksum:E13295B1 plane_checksum:[48A7F218 7CBCD5AB 4F57CDD0] mean:[53 127 125 ] stdev:[23.7 8.3 3.5 ]
[Parsed_showinfo_1 @ 0x55f0c4ea2200] color_range:unknown color_space:unknown color_primaries:unknown color_trc:unknown
[Parsed_showinfo_1 @ 0x55f0c4ea2200] n:  15 pts: 920576 pts_time:71.92   pos:  6769307 fmt:yuv420p sar:1/1 s:512x1024 i:P iskey:1 type:I checksum:53B44121 plane_checksum:[A303C819 04DAB95E 08ECBF8C] mean:[67 127 130 ] stdev:[22.6 8.9 18.1 ]
[Parsed_showinfo_1 @ 0x55f0c4ea2200] color_range:unknown color_space:unknown color_primaries:unknown color_trc:unknown
[Parsed_showinfo_1 @ 0x55f0c4ea2200] n:  16 pts: 971776 pts_time:75.92   pos:  7223895 fmt:yuv420p sar:1/1 s:512x1024 i:P iskey:1 type:I checksum:02D1538D plane_checksum:[2F0DE79A 5254FF0B 51136CCA] mean:[67 127 134 ] stdev:[27.4 8.6 17.9 ]
[Parsed_showinfo_1 @ 0x55f0c4ea2200] color_range:unknown color_space:unknown color_primaries:unknown color_trc:unknown
frame=   17 fps=5.6 q=-0.0 size=N/A time=00:01:15.96 bitrate=N/A speed=25.2x    
[Parsed_showinfo_1 @ 0x55f0c4ea2200] n:  17 pts:1022464 pts_time:79.88   pos:  7655980 fmt:yuv420p sar:1/1 s:512x1024 i:P iskey:1 type:I checksum:F4B01C36 plane_checksum:[144E84C5 CF8D376C 71C75FF6] mean:[66 127 131 ] stdev:[23.4 9.9 18.6 ]
[Parsed_showinfo_1 @ 0x55f0c4ea2200] color_range:unknown color_space:unknown color_primaries:unknown color_trc:unknown
[Parsed_showinfo_1 @ 0x55f0c4ea2200] n:  18 pts:1073152 pts_time:83.84   pos:  8087281 fmt:yuv420p sar:1/1 s:512x1024 i:P iskey:1 type:I checksum:7135A164 plane_checksum:[617732BE 640248D0 3D9925D6] mean:[57 142 123 ] stdev:[18.2 11.4 13.2 ]
[Parsed_showinfo_1 @ 0x55f0c4ea2200] color_range:unknown color_space:unknown color_primaries:unknown color_trc:unknown
[Parsed_showinfo_1 @ 0x55f0c4ea2200] n:  19 pts:1125888 pts_time:87.96   pos:  8575994 fmt:yuv420p sar:1/1 s:512x1024 i:P iskey:1 type:I checksum:3DF52ABA plane_checksum:[09C82BCF EE0D826B B77D7C71] mean:[64 138 130 ] stdev:[26.8 14.9 26.5 ]
[Parsed_showinfo_1 @ 0x55f0c4ea2200] color_range:unknown color_space:unknown color_primaries:unknown color_trc:unknown
[Parsed_showinfo_1 @ 0x55f0c4ea2200] n:  20 pts:1203200 pts_time:94      pos:  9304134 fmt:yuv420p sar:1/1 s:512x1024 i:P iskey:1 type:I checksum:393C61DD plane_checksum:[12472A5B A3F8FE9A BD3638D9] mean:[65 135 129 ] stdev:[30.8 18.6 27.2 ]
ChatGPT
It seems that there are no duplicate frames in the input video "shortfrogs.mp4". The log shows the information about each frame in the video, including the frame number (n), presentation time stamp (pts), presentation time in seconds (pts_time), position in the input file (pos), format (fmt), sample aspect ratio (sar), size (s), picture type (type), and some other information such as mean and stdev values for each color channel. The log does not indicate any frames being duplicates, and each frame seems to have a unique presentation time stamp.
user
why do they look the same to my eyes ?
ChatGPT
The duplicate frames may be difficult to spot with the naked eye, especially if they are only a few frames apart. The human brain is very good at filling in missing information and creating a sense of continuity, so even if there are some duplicate frames, we may not notice them. 

However, if you were to play the video in slow motion or step through it frame by frame, you may be able to see the duplicate frames more clearly. Additionally, a computer program can easily detect duplicate frames by comparing the pixel data of consecutive frames.
user
It looks like same . it appears to have have many duplicates
ChatGPT
It is possible that the items you are looking at have many duplicates or similarities. This could be due to several reasons such as manufacturing processes, design choices, or even intentional replication. Additionally, our eyes and brain can sometimes perceive similar objects as identical, especially if they are very similar in shape, size, or color. However, it is important to carefully inspect the items to make sure that they are not actually duplicates or replicas, especially if authenticity or originality is important to you.
user
I am using AI images
ChatGPT
I see, if you are using AI-generated images, it is possible that they are based on similar patterns or algorithms, resulting in a similar appearance. Additionally, some AI models may be designed to produce variations of the same image, such as color or texture changes, which could result in images that appear to be duplicates. However, it is important to note that AI-generated images can vary greatly depending on the specific model and training data used.
user
what about scene detection without audio 
ChatGPT
Scene detection can be done without audio by analyzing the visual features of a video. This involves analyzing the frames of the video and detecting changes in visual elements such as color, motion, and texture. Machine learning algorithms can be trained to recognize patterns in these visual features and classify the frames into different scenes.

There are several approaches to scene detection without audio, such as threshold-based methods, clustering-based methods, and deep learning-based methods. Threshold-based methods involve setting a threshold for a specific visual feature, such as color or motion, and detecting changes in the feature that exceed the threshold. Clustering-based methods involve grouping similar frames together into scenes based on their visual features. Deep learning-based methods involve training a neural network to recognize patterns in the visual features and classify the frames into scenes.

The choice of method depends on the specific requirements of the scene detection task and the complexity of the video content. Deep learning-based methods have shown promising results in scene detection tasks, but they require large amounts of labeled data for training and can be computationally expensive. Threshold-based and clustering-based methods are simpler and faster, but they may not be as accurate as deep learning-based methods for complex video content.
user
is there an ffmpeg scene detection to remove duplicates
ChatGPT
Yes, ffmpeg has a scene detection filter that can be used to detect and remove duplicate frames or scenes from a video. The scene detection filter works by comparing adjacent frames in a video and determining if there is a significant change in the scene. If a significant change is detected, the filter marks the frame as a scene change and outputs it. 

To use the scene detection filter in ffmpeg, you can use the following command:

```
ffmpeg -i input_video.mp4 -filter:v "select='gt(scene\,0.4)',setpts=N/FRAME_RATE/TB" -an -vsync 0 output_video.mp4
```

In this command, the `select` filter is used to detect scene changes. The value `0.4` is the threshold value for the scene change detection, and can be adjusted as needed. The `setpts` filter is used to adjust the timestamps of the frames so that they maintain their original speed after duplicate frames are removed. The `-an` option is used to remove the audio from the output video, and the `-vsync 0` option is used to disable frame rate synchronization.

This command will output a new video with the same video codec as the input video, but with any duplicate frames or scenes removed.
user
it gave me an empty mp4
ChatGPT
If the output mp4 file is empty, it could mean that the scene detection did not detect any significant changes in the video frames, or that there were errors during the scene detection process.

You could try adjusting the scene detection parameters, such as the threshold value, to see if it detects any scenes. You could also try using a different scene detection algorithm or tool to see if it produces better results.

If the issue persists, it could be helpful to check the input video file and the command line arguments you used for any errors or issues that may be causing the problem.
user
explain this select='gt(scene\,0.4)'
ChatGPT
`select='gt(scene\,0.4)'` is a filter expression in FFmpeg that is used for scene detection. 

Here, `gt` stands for "greater than," and `scene` refers to a video filter that calculates a score for each frame of the video. This score represents the likelihood that a new scene has started.

The `0.4` value is the threshold score. The filter expression selects frames where the scene score is greater than 0.4, meaning that it has a high likelihood of being the start of a new scene.

In summary, the filter expression `select='gt(scene\,0.4)'` selects frames that are likely to be the start of a new scene in the video.
user
ffmpeg can I duplicate every fifth frame 2 times
ChatGPT
Yes, you can use the `select` and `setpts` filters in ffmpeg to duplicate every fifth frame two times. Here's the command:

```
ffmpeg -i input.mp4 -filter_complex "[0:v]select='not(mod(n\,5))',setpts=N/FRAME_RATE/TB,fps=fps=2*FRAME_RATE[out]" -map "[out]" -map 0:a? -c:a copy output.mp4
```

Let's break down the filtergraph step by step:

1. `[0:v]select='not(mod(n\,5))'` selects every fifth frame using the `mod` function and the `not` operator to invert the selection. This means that every frame that is not a multiple of 5 will be selected.
2. `setpts=N/FRAME_RATE/TB` sets the output frame rate to the same as the input frame rate.
3. `fps=fps=2*FRAME_RATE` duplicates each selected frame two times, effectively doubling the output frame rate.
4. `-map "[out]" -map 0:a? -c:a copy` maps the filtered video stream and copies the audio stream (if it exists) to the output.

The resulting output video will have every fifth frame duplicated two times, effectively increasing the frame rate by a factor of two.
user
Input #0, mov,mp4,m4a,3gp,3g2,mj2, from 'EXPERIMENT/shortfrogs-setpoints4-200.mp4':
  Metadata:
    major_brand     : isom
    minor_version   : 512
    compatible_brands: isomiso2avc1mp41
    encoder         : Lavf58.29.100
  Duration: 00:00:48.84, start: 0.000000, bitrate: 1852 kb/s
    Stream #0:0(und): Video: h264 (High 4:4:4 Predictive) (avc1 / 0x31637661), yuv444p, 512x1024 [SAR 1:1 DAR 1:2], 1849 kb/s, 25 fps, 25 tbr, 12800 tbn, 50 tbc (default)
    Metadata:
      handler_name    : VideoHandler
[fps @ 0x55f14e5ede80] Unable to parse option value "2*FRAME_RATE" as video rate
    Last message repeated 1 timesimes
[fps @ 0x55f14e5ede80] Error setting option fps to value 2*FRAME_RATE.
[Parsed_fps_2 @ 0x55f14e5edd40] Error applying options to the filter.
[AVFilterGraph @ 0x55f14e622ec0] Error initializing filter 'fps' with args 'fps=2*FRAME_RATE'
Error initializing complex filters.
Invalid argument

ChatGPT
The error message suggests that the `fps` filter encountered a problem with the `2*FRAME_RATE` argument. It seems that `FRAME_RATE` is not a defined variable and the filter cannot parse the argument. 

To duplicate every fifth frame 2 times, you can use the `select` and `setpts` filters together. The `select` filter selects every fifth frame, and the `setpts` filter duplicates it twice. Here's an example command:

```
ffmpeg -i input.mp4 -vf "select='not(mod(n\,5))',setpts=N/2/TB" output.mp4
```

In this command, the `select` filter selects every fifth frame by checking if the frame number `n` is not divisible by 5 (`not(mod(n\,5))`). The `setpts` filter sets the PTS (presentation timestamp) of the selected frame to half of the input frame rate (`N/2/TB`), effectively duplicating it twice. The output is written to `output.mp4`.
user
this appear to be duplicating every frame not only every 5th frame
ChatGPT
I apologize for the confusion in my previous response. You're correct that the filter I provided will duplicate every frame, not just every fifth frame. 

To duplicate every fifth frame, you can use the `select` filter to choose only the frames with indices that are multiples of 5, and then use the `setpts` filter to duplicate them. Here is an example command:

```
ffmpeg -i input.mp4 -vf "select='mod(n,5)==0',setpts='2*PTS'" output.mp4
```

In this command, the `select` filter chooses only the frames with indices that are multiples of 5 using the `mod(n,5)==0` expression. The `setpts` filter duplicates each of these frames by setting the presentation timestamp of the duplicated frame to twice the original timestamp (`2*PTS`).

I hope this helps!
user
Press [q] to stop, [?] for help
[Parsed_select_0 @ 0x561e9d52ba00] [Eval @ 0x7ffc73fe79c0] Invalid chars '==0' at the end of expression 'mod(n,5)==0'
[Parsed_select_0 @ 0x561e9d52ba00] Error while parsing expression 'mod(n,5)==0'
[AVFilterGraph @ 0x561e9d52afc0] Error initializing filter 'select' with args 'mod(n,5)==0'
Error reinitializing filters!
Failed to inject frame into filter network: Invalid argument
Error while processing the decoded data for stream #0:0
Conversion failed!

ChatGPT
It looks like there is an error with the expression used in the select filter. The error message states that there are invalid characters at the end of the expression 'mod(n,5)==0', which seems to be '==0'. 

Try changing the expression to 'mod(n,5)=0' instead. This should fix the error and correctly select every 5th frame. Here is the modified command:

```
ffmpeg -i input.mp4 -vf "select='mod(n,5)=0',setpts=N/FRAME_RATE/TB" output.mp4
```
user
ffmpeg -hide_banner -i EXPERIMENT/shortfrogs-setpoints4-200.mp4  -vf "select='mod(n,5)==0',setpts=N/FRAME_RATE/TB" -y EXPERIMENT/shortfrogs-setpoints4-200every2.mp4
[Parsed_select_0 @ 0x556f580cba40] [Eval @ 0x7ffcafaff5a0] Invalid chars '==0' at the end of expression 'mod(n,5)==0'
[Parsed_select_0 @ 0x556f580cba40] Error while parsing expression 'mod(n,5)==0'
[AVFilterGraph @ 0x556f580cafc0] Error initializing filter 'select' with args 'mod(n,5)==0'
Error reinitializing filters!
Failed to inject frame into filter network: Invalid argument
Error while processing the decoded data for stream #0:0
ChatGPT
The error message suggests that there is an issue with the syntax of the filtergraph. The expression `mod(n,5)==0` is not being parsed correctly by the `select` filter. To fix this, you can try the following command:

```
ffmpeg -i EXPERIMENT/shortfrogs-setpoints4-200.mp4 -vf "select='not(mod(n\,5))',setpts=N/FRAME_RATE/TB" -y EXPERIMENT/shortfrogs-setpoints4-200every2.mp4
```

Here, we have modified the expression to `not(mod(n\,5))`, which should duplicate every 5th frame. Note that we have escaped the `%` character with a backslash `\`, as it has a special meaning in Bash.
user
#!/bin/bash

# Define input folder and file extension
input_folder="/home/jack/Desktop/HDD500/Downloads/00de3/butterflies/frog/leonardo.ai_files/"
file_extension=".jpg"

# Define output file path and name
output_file="/home/jack/Desktop/ffmpegSlideshowBlendfrog.mp4"

# Define slideshow duration and transition duration
slideshow_duration="6"
transition_duration="1"

# Create the FFmpeg filter complex
filter_complex=""

# Loop through all files in the input folder and add them to the filter complex
for file in "$input_folder"/*"$file_extension"; do
  filter_complex="$filter_complex[0:v]trim=duration=$slideshow_duration,fade=t=in:st=0:d=$transition_duration,fade=t=out:st=$((slideshow_duration-transition_duration)):d=$transition_duration,setsar=1:1[v$(basename "$file" "$file_extension")];"
done

# Remove the last semicolon from the filter complex
filter_complex="${filter_complex%;}"

# Add the concat filter to the end of the filter complex
filter_complex="$filter_complex$(for i in $(seq 0 $(($(ls "$input_folder"/*"$file_extension" | wc -l)-1))); do echo "[v$i]"; done | tr -d '\n')concat=n=$(ls "$input_folder"/*"$file_extension" | wc -l):v=1:a=0,setsar=1:1[v]"

# Run FFmpeg with the defined filter complex and output file
ffmpeg -hide_banner -y -loop 1 -i "${input_folder}/$(ls "$input_folder" | head -n 1)" -filter_complex "$filter_complex" -map "[v]" -s 512x1024 -r 24 -strict -2 "$output_file"
[AVFilterGraph @ 0x5646f7c03f40] No output pad can be associated to link label 'v0'.
Error initializing complex filters.
Invalid argument

ChatGPT
It seems like there is an issue with the filter complex construction. The error message indicates that there is no output pad associated with the link label 'v0'. This error might be caused by an incorrect naming convention of the filter pads.

To fix the issue, you can try changing the filter complex construction to:

```
filter_complex=""

# Loop through all files in the input folder and add them to the filter complex
for file in "$input_folder"/*"$file_extension"; do
  filter_complex="$filter_complex[$((i+1)):v]trim=duration=$slideshow_duration,fade=t=in:st=0:d=$transition_duration,fade=t=out:st=$((slideshow_duration-transition_duration)):d=$transition_duration,setsar=1:1[v$i];"
  i=$((i+1))
done

# Remove the last semicolon from the filter complex
filter_complex="${filter_complex%;}"

# Add the concat filter to the end of the filter complex
filter_complex="$filter_complex$(for i in $(seq 0 $(($(ls "$input_folder"/*"$file_extension" | wc -l)-1))); do echo "[v$i]"; done | tr -d '\n')concat=n=$(ls "$input_folder"/*"$file_extension" | wc -l):v=1:a=0,setsar=1:1[v]"

# Run FFmpeg with the defined filter complex and output file
ffmpeg -hide_banner -y -loop 1 -i "${input_folder}/$(ls "$input_folder" | head -n 1)" -filter_complex "$filter_complex" -map "[v]" -s 512x1024 -r 24 -strict -2 "$output_file"
```

This modification should name the filter pads correctly and fix the issue.
user
# Define input folder and file extension
input_folder="/home/jack/Desktop/HDD500/Downloads/00de3/butterflies/frog/leonardo.ai_files"
file_extension=".jpg"

# Define output file path and name
output_file="/home/jack/Desktop/ffmpegSlideshowBlendfrog.mp4"
filter_complex=""

# Loop through all files in the input folder and add them to the filter complex
for file in "$input_folder"/*"$file_extension"; do
  filter_complex="$filter_complex[$((i+1)):v]trim=duration=$slideshow_duration,fade=t=in:st=0:d=$transition_duration,fade=t=out:st=$((slideshow_duration-transition_duration)):d=$transition_duration,setsar=1:1[v$i];"
  i=$((i+1))
done

# Remove the last semicolon from the filter complex
filter_complex="${filter_complex%;}"

# Add the concat filter to the end of the filter complex
filter_complex="$filter_complex$(for i in $(seq 0 $(($(ls "$input_folder"/*"$file_extension" | wc -l)-1))); do echo "[v$i]"; done | tr -d '\n')concat=n=$(ls "$input_folder"/*"$file_extension" | wc -l):v=1:a=0,setsar=1:2[v]"

# Run FFmpeg with the defined filter complex and output file
ffmpeg -hide_banner -y -loop 1 -i "${input_folder}/$(ls "$input_folder" | head -n 1)" -filter_complex "$filter_complex" -map "[v]" -s 512x1024 -r 24 -strict -2 "$output_file"
AR 1:1 DAR 1:2], 25 fps, 25 tbr, 25 tbn, 25 tbc
[AVFilterGraph @ 0x55701e14ef40] No output pad can be associated to link label 'v0'.
Error initializing complex filters.
Invalid argument

ChatGPT
It seems like there is a typo in the filter_complex expression. The index variable `i` is not initialized before being used in the for loop. Try changing `for file in "$input_folder"/*"$file_extension"; do` to `i=0; for file in "$input_folder"/*"$file_extension"; do`. Also, the output video resolution is set to 512x1024, which might not be a valid resolution. You can try setting it to a standard resolution such as 1280x720 or 1920x1080.
user
it is a portrait mp4
ChatGPT
If the original video is a portrait mp4, you can use the `-vf` option to add a black bar to the sides of the video, to make it fit a 16:9 aspect ratio. For example, you can use the following command:

```
ffmpeg -i input.mp4 -vf "pad=ih*16/9:ih:(ow-iw)/2:0:black" -c:a copy output.mp4
```

This command will add black bars to the left and right sides of the video, to make it fit a 16:9 aspect ratio. The `-c:a copy` option will copy the audio stream without re-encoding it. You can adjust the dimensions of the output video by changing the first argument of the `pad` filter.
user
how do I do that here ?       # Define input folder and file extension
input_folder="/home/jack/Desktop/HDD500/Downloads/00de3/butterflies/frog/leonardo.ai_files"
file_extension=".jpg"

# Define output file path and name
output_file="/home/jack/Desktop/ffmpegSlideshowBlendfrog.mp4"
filter_complex=""

# Loop through all files in the input folder and add them to the filter complex
for file in "$input_folder"/*"$file_extension"; do
  filter_complex="$filter_complex[$((i+1)):v]trim=duration=$slideshow_duration,fade=t=in:st=0:d=$transition_duration,fade=t=out:st=$((slideshow_duration-transition_duration)):d=$transition_duration,setsar=1:1[v$i];"
  i=$((i+1))
done

# Remove the last semicolon from the filter complex
filter_complex="${filter_complex%;}"

# Add the concat filter to the end of the filter complex
filter_complex="$filter_complex$(for i in $(seq 0 $(($(ls "$input_folder"/*"$file_extension" | wc -l)-1))); do echo "[v$i]"; done | tr -d '\n')concat=n=$(ls "$input_folder"/*"$file_extension" | wc -l):v=1:a=0,setsar=1:2[v]"

# Run FFmpeg with the defined filter complex and output file
ffmpeg -hide_banner -y -loop 1 -i "${input_folder}/$(ls "$input_folder" | head -n 1)" -filter_complex "$filter_complex" -map "[v]" -s 512x1024 -r 24 -strict -2 "$output_file"

ChatGPT
To create a portrait mp4, you need to adjust the video dimensions in the FFmpeg command. You can do this by changing the `-s` option to match the aspect ratio of your portrait video. For example, if your video is 9:16 (width:height), you can set the dimensions to 512x910:

```
# Define input folder and file extension
input_folder="/home/jack/Desktop/HDD500/Downloads/00de3/butterflies/frog/leonardo.ai_files"
file_extension=".jpg"

# Define output file path and name
output_file="/home/jack/Desktop/ffmpegSlideshowBlendfrog.mp4"
filter_complex=""

# Set the video dimensions to 512x910 for a portrait video with a 9:16 aspect ratio
video_dimensions="512x910"

# Loop through all files in the input folder and add them to the filter complex
for file in "$input_folder"/*"$file_extension"; do
  filter_complex="$filter_complex[$((i+1)):v]trim=duration=$slideshow_duration,fade=t=in:st=0:d=$transition_duration,fade=t=out:st=$((slideshow_duration-transition_duration)):d=$transition_duration,setsar=1:1[v$i];"
  i=$((i+1))
done

# Remove the last semicolon from the filter complex
filter_complex="${filter_complex%;}"

# Add the concat filter to the end of the filter complex
filter_complex="$filter_complex$(for i in $(seq 0 $(($(ls "$input_folder"/*"$file_extension" | wc -l)-1))); do echo "[v$i]"; done | tr -d '\n')concat=n=$(ls "$input_folder"/*"$file_extension" | wc -l):v=1:a=0,setsar=1:2[v]"

# Run FFmpeg with the defined filter complex and output file
ffmpeg -hide_banner -y -loop 1 -i "${input_folder}/$(ls "$input_folder" | head -n 1)" -filter_complex "$filter_complex" -map "[v]" -s "$video_dimensions" -r 24 -strict -2 "$output_file"
```

Make sure to set the `video_dimensions` variable to match the aspect ratio of your portrait video.
user
# Define input folder and file extension
input_folder="/home/jack/Desktop/HDD500/Downloads/00de3/butterflies/frog/leonardo.ai_files"
file_extension=".jpg"

# Define output file path and name
output_file="/home/jack/Desktop/ffmpegSlideshowBlendfrog.mp4"
filter_complex=""

# Set the video dimensions to 512x910 for a portrait video with a 9:16 aspect ratio
video_dimensions="512x1024"

# Loop through all files in the input folder and add them to the filter complex
for file in "$input_folder"/*"$file_extension"; do
  filter_complex="$filter_complex[$((i+1)):v]trim=duration=$slideshow_duration,fade=t=in:st=0:d=$transition_duration,fade=t=out:st=$((slideshow_duration-transition_duration)):d=$transition_duration,setsar=1:1[v$i];"
  i=$((i+1))
done

# Remove the last semicolon from the filter complex
filter_complex="${filter_complex%;}"

# Add the concat filter to the end of the filter complex
filter_complex="$filter_complex$(for i in $(seq 0 $(($(ls "$input_folder"/*"$file_extension" | wc -l)-1))); do echo "[v$i]"; done | tr -d '\n')concat=n=$(ls "$input_folder"/*"$file_extension" | wc -l):v=1:a=0,setsar=1:2[v]"

# Run FFmpeg with the defined filter complex and output file
ffmpeg -hide_banner -y -loop 1 -i "${input_folder}/$(ls "$input_folder" | head -n 1)" -filter_complex "$filter_complex" -map "[v]" -s "$video_dimensions" -r 24 -strict -2 "$output_file"
Input #0, image2, from '/home/jack/Desktop/HDD500/Downloads/00de3/butterflies/frog/leonardo.ai_files/00001.jpg':
  Duration: 00:00:00.04, start: 0.000000, bitrate: 27176 kb/s
    Stream #0:0: Video: mjpeg (Baseline), yuvj444p(pc, bt470bg/unknown/unknown), 512x1024 [SAR 1:1 DAR 1:2], 25 fps, 25 tbr, 25 tbn, 25 tbc
[AVFilterGraph @ 0x5636d5a20f40] No output pad can be associated to link label 'v0'.
Error initializing complex filters.
Invalid argument
ChatGPT
It seems like the error is caused by the filter complex. Specifically, it seems like the filter complex is not generating the expected number of video streams.

You can try adding some debug information to the script to help identify the issue. For example, you can add some `echo` statements to print out the value of `$filter_complex` and the number of input files. Here's an updated script with some debug information added:

```
# Define input folder and file extension
input_folder="/home/jack/Desktop/HDD500/Downloads/00de3/butterflies/frog/leonardo.ai_files"
file_extension=".jpg"

# Define output file path and name
output_file="/home/jack/Desktop/ffmpegSlideshowBlendfrog.mp4"
filter_complex=""

# Set the video dimensions to 512x910 for a portrait video with a 9:16 aspect ratio
video_dimensions="512x1024"

# Loop through all files in the input folder and add them to the filter complex
for file in "$input_folder"/*"$file_extension"; do
  filter_complex="$filter_complex[$((i+1)):v]trim=duration=$slideshow_duration,fade=t=in:st=0:d=$transition_duration,fade=t=out:st=$((slideshow_duration-transition_duration)):d=$transition_duration,setsar=1:1[v$i];"
  i=$((i+1))
done

# Remove the last semicolon from the filter complex
filter_complex="${filter_complex%;}"

# Add the concat filter to the end of the filter complex
filter_complex="$filter_complex$(for i in $(seq 0 $(($(ls "$input_folder"/*"$file_extension" | wc -l)-1))); do echo "[v$i]"; done | tr -d '\n')concat=n=$(ls "$input_folder"/*"$file_extension" | wc -l):v=1:a=0,setsar=1:2[v]"

# Debug information
echo "Number of input files: $(ls "$input_folder"/*"$file_extension" | wc -l)"
echo "Filter complex:"
echo "$filter_complex"

# Run FFmpeg with the defined filter complex and output file
ffmpeg -hide_banner -y -loop 1 -i "${input_folder}/$(ls "$input_folder" | head -n 1)" -filter_complex "$filter_complex" -map "[v]" -s "$video_dimensions" -r 24 -strict -2 "$output_file"
```

This will print out the number of input files and the filter complex before running FFmpeg. You can use this information to identify the issue with the filter complex.

